<!-- Стилі для scss при використанні спрайтів -->
<!-- Для обгортки (div, a , span ...):
        - width (px), height (px), padding, transition
     Для тегу svg:
        - width (100%), height (100%), flex (для вирівнювання)
     Для тегу use:
        - кольори для svg -->

<svg xmlns="http://www.w3.org/2000/svg">
   <symbol id="logo" viewBox="0 0 366 95">
      <path
         d="M76.9766 0.078125V95H55.5312V30.8984L46.8594 95H31.5078L22.4258 32.4805V95H0.921875V0.078125H32.8555C33.0898 1.60156 33.4219 3.76953 33.8516 6.58203C34.2812 9.39453 34.6133 11.6797 34.8477 13.4375C35.1211 15.1562 35.4531 17.4219 35.8438 20.2344L39.1836 44.4922L44.8672 0.078125H76.9766ZM129.535 0.078125L143.598 95H118.402L117.172 77.9492H108.324L106.859 95H81.3125L93.9102 0.078125H129.535ZM116.469 61.1328C115.844 55.8203 115.277 50.6641 114.77 45.6641C114.301 40.625 113.617 32.5195 112.719 21.3477C111.234 32.1289 110.18 40.2734 109.555 45.7812C108.93 51.25 108.422 56.3672 108.031 61.1328H116.469ZM147.875 0.078125H165.395C177.074 0.078125 184.945 0.566406 189.008 1.54297C193.07 2.36328 196.43 4.62891 199.086 8.33984C201.664 12.168 202.953 18.0469 202.953 25.9766C202.953 33.3594 202.016 38.3398 200.141 40.918C198.305 43.457 194.73 44.9609 189.418 45.4297C194.379 46.7969 197.66 48.4375 199.262 50.3516C201.02 52.5391 202.055 54.375 202.367 55.8594C202.602 56.9531 202.758 58.6328 202.836 60.8984C202.914 63.1641 202.953 66.2109 202.953 70.0391V95H180.043V63.418C180.043 58.3008 179.633 55.1953 178.812 54.1016C177.992 52.8906 175.883 52.2852 172.484 52.2852V95H147.875V0.078125ZM172.484 16.4258V37.5195C175.375 37.5195 177.328 37.1289 178.344 36.3477C179.477 35.4492 180.043 32.9687 180.043 28.9062V23.6914C180.043 20.6445 179.477 18.6523 178.344 17.7148C177.25 16.8555 175.297 16.4258 172.484 16.4258ZM271.098 0.078125L258.617 95H221.176L206.938 0.078125H232.953C233.695 6.48437 234.535 14.2187 235.473 23.2812C236.41 32.3047 237.172 39.9609 237.758 46.25C238.344 52.5391 238.91 59.2773 239.457 66.4648C239.73 62.7539 240.062 58.3398 240.453 53.2227C240.844 48.0664 241.215 43.1836 241.566 38.5742C241.957 33.9258 242.309 29.707 242.621 25.918C242.973 22.1289 243.227 19.3945 243.383 17.7148L245.199 0.078125H271.098ZM275.375 0.195312H316.508V19.1797H299.984V37.168H315.453V55.1562H299.984V76.0156H318.09V95H275.375V0.195312ZM349.906 0.078125V76.0156H365.023V95H325.297V0.078125H349.906Z" />
   </symbol>
</svg>